<mxfile host="app.diagrams.net" agent="Mozilla/5.0 (Macintosh; Intel Mac OS X 10_15_7) AppleWebKit/605.1.15 (KHTML, like Gecko) Version/16.6 Safari/605.1.15" version="24.8.3">
  <diagram name="Page-1" id="1hyQOkYcCnizMoC-dVFo">
    <mxGraphModel dx="954" dy="647" grid="1" gridSize="10" guides="1" tooltips="1" connect="1" arrows="1" fold="1" page="1" pageScale="1" pageWidth="827" pageHeight="1169" math="0" shadow="0">
      <root>
        <mxCell id="0" />
        <mxCell id="1" parent="0" />
        <mxCell id="RpOgEfXj6c8OLHwiYwvP-12" style="rounded=0;orthogonalLoop=1;jettySize=auto;html=1;exitX=0.5;exitY=1;exitDx=0;exitDy=0;entryX=0.5;entryY=0;entryDx=0;entryDy=0;edgeStyle=orthogonalEdgeStyle;startArrow=none;startFill=0;endArrow=none;endFill=0;" edge="1" parent="1" source="RpOgEfXj6c8OLHwiYwvP-1" target="RpOgEfXj6c8OLHwiYwvP-2">
          <mxGeometry relative="1" as="geometry" />
        </mxCell>
        <mxCell id="RpOgEfXj6c8OLHwiYwvP-23" style="edgeStyle=orthogonalEdgeStyle;shape=connector;rounded=0;orthogonalLoop=1;jettySize=auto;html=1;exitX=0.5;exitY=1;exitDx=0;exitDy=0;entryX=0.5;entryY=0;entryDx=0;entryDy=0;strokeColor=default;align=center;verticalAlign=middle;fontFamily=Helvetica;fontSize=11;fontColor=default;labelBackgroundColor=default;startArrow=none;startFill=0;endArrow=none;endFill=0;" edge="1" parent="1" source="RpOgEfXj6c8OLHwiYwvP-1" target="RpOgEfXj6c8OLHwiYwvP-22">
          <mxGeometry relative="1" as="geometry" />
        </mxCell>
        <mxCell id="RpOgEfXj6c8OLHwiYwvP-1" value="Girl Maps&lt;div&gt;0&lt;/div&gt;" style="rounded=0;whiteSpace=wrap;html=1;" vertex="1" parent="1">
          <mxGeometry x="414" y="10" width="120" height="60" as="geometry" />
        </mxCell>
        <mxCell id="RpOgEfXj6c8OLHwiYwvP-13" style="edgeStyle=orthogonalEdgeStyle;shape=connector;rounded=0;orthogonalLoop=1;jettySize=auto;html=1;exitX=0.5;exitY=1;exitDx=0;exitDy=0;entryX=0;entryY=0.5;entryDx=0;entryDy=0;strokeColor=default;align=center;verticalAlign=middle;fontFamily=Helvetica;fontSize=11;fontColor=default;labelBackgroundColor=default;startArrow=none;startFill=0;endArrow=none;endFill=0;" edge="1" parent="1" source="RpOgEfXj6c8OLHwiYwvP-2" target="RpOgEfXj6c8OLHwiYwvP-3">
          <mxGeometry relative="1" as="geometry" />
        </mxCell>
        <mxCell id="RpOgEfXj6c8OLHwiYwvP-16" style="edgeStyle=orthogonalEdgeStyle;shape=connector;rounded=0;orthogonalLoop=1;jettySize=auto;html=1;exitX=0.5;exitY=1;exitDx=0;exitDy=0;entryX=0;entryY=0.5;entryDx=0;entryDy=0;strokeColor=default;align=center;verticalAlign=middle;fontFamily=Helvetica;fontSize=11;fontColor=default;labelBackgroundColor=default;startArrow=none;startFill=0;endArrow=none;endFill=0;" edge="1" parent="1" source="RpOgEfXj6c8OLHwiYwvP-2" target="RpOgEfXj6c8OLHwiYwvP-6">
          <mxGeometry relative="1" as="geometry" />
        </mxCell>
        <mxCell id="RpOgEfXj6c8OLHwiYwvP-2" value="Normal mode&lt;div&gt;1&lt;/div&gt;" style="rounded=0;whiteSpace=wrap;html=1;" vertex="1" parent="1">
          <mxGeometry x="40" y="120" width="120" height="60" as="geometry" />
        </mxCell>
        <mxCell id="RpOgEfXj6c8OLHwiYwvP-14" style="edgeStyle=orthogonalEdgeStyle;shape=connector;rounded=0;orthogonalLoop=1;jettySize=auto;html=1;exitX=0.5;exitY=1;exitDx=0;exitDy=0;entryX=0;entryY=0.5;entryDx=0;entryDy=0;strokeColor=default;align=center;verticalAlign=middle;fontFamily=Helvetica;fontSize=11;fontColor=default;labelBackgroundColor=default;startArrow=none;startFill=0;endArrow=none;endFill=0;" edge="1" parent="1" source="RpOgEfXj6c8OLHwiYwvP-3" target="RpOgEfXj6c8OLHwiYwvP-4">
          <mxGeometry relative="1" as="geometry" />
        </mxCell>
        <mxCell id="RpOgEfXj6c8OLHwiYwvP-15" style="edgeStyle=orthogonalEdgeStyle;shape=connector;rounded=0;orthogonalLoop=1;jettySize=auto;html=1;exitX=0.5;exitY=1;exitDx=0;exitDy=0;entryX=0;entryY=0.5;entryDx=0;entryDy=0;strokeColor=default;align=center;verticalAlign=middle;fontFamily=Helvetica;fontSize=11;fontColor=default;labelBackgroundColor=default;startArrow=none;startFill=0;endArrow=none;endFill=0;" edge="1" parent="1" source="RpOgEfXj6c8OLHwiYwvP-3" target="RpOgEfXj6c8OLHwiYwvP-5">
          <mxGeometry relative="1" as="geometry" />
        </mxCell>
        <mxCell id="RpOgEfXj6c8OLHwiYwvP-3" value="&quot;kjut&quot; zvočno vodenje&lt;div&gt;1.1&lt;/div&gt;" style="rounded=0;whiteSpace=wrap;html=1;" vertex="1" parent="1">
          <mxGeometry x="130" y="190" width="120" height="60" as="geometry" />
        </mxCell>
        <mxCell id="RpOgEfXj6c8OLHwiYwvP-4" value="prijazni glasovni napotki&lt;div&gt;1.1.1&lt;/div&gt;" style="rounded=0;whiteSpace=wrap;html=1;" vertex="1" parent="1">
          <mxGeometry x="220" y="270" width="120" height="60" as="geometry" />
        </mxCell>
        <mxCell id="RpOgEfXj6c8OLHwiYwvP-5" value="izbira med 3 različnimi glasovi&lt;div&gt;1.1.2&lt;/div&gt;" style="rounded=0;whiteSpace=wrap;html=1;" vertex="1" parent="1">
          <mxGeometry x="220" y="350" width="120" height="60" as="geometry" />
        </mxCell>
        <mxCell id="RpOgEfXj6c8OLHwiYwvP-17" style="edgeStyle=orthogonalEdgeStyle;shape=connector;rounded=0;orthogonalLoop=1;jettySize=auto;html=1;exitX=0.5;exitY=1;exitDx=0;exitDy=0;entryX=0;entryY=0.5;entryDx=0;entryDy=0;strokeColor=default;align=center;verticalAlign=middle;fontFamily=Helvetica;fontSize=11;fontColor=default;labelBackgroundColor=default;startArrow=none;startFill=0;endArrow=none;endFill=0;" edge="1" parent="1" source="RpOgEfXj6c8OLHwiYwvP-6" target="RpOgEfXj6c8OLHwiYwvP-7">
          <mxGeometry relative="1" as="geometry" />
        </mxCell>
        <mxCell id="RpOgEfXj6c8OLHwiYwvP-18" style="edgeStyle=orthogonalEdgeStyle;shape=connector;rounded=0;orthogonalLoop=1;jettySize=auto;html=1;exitX=0.5;exitY=1;exitDx=0;exitDy=0;entryX=0;entryY=0.5;entryDx=0;entryDy=0;strokeColor=default;align=center;verticalAlign=middle;fontFamily=Helvetica;fontSize=11;fontColor=default;labelBackgroundColor=default;startArrow=none;startFill=0;endArrow=none;endFill=0;" edge="1" parent="1" source="RpOgEfXj6c8OLHwiYwvP-6" target="RpOgEfXj6c8OLHwiYwvP-8">
          <mxGeometry relative="1" as="geometry" />
        </mxCell>
        <mxCell id="RpOgEfXj6c8OLHwiYwvP-19" style="edgeStyle=orthogonalEdgeStyle;shape=connector;rounded=0;orthogonalLoop=1;jettySize=auto;html=1;exitX=0.5;exitY=1;exitDx=0;exitDy=0;entryX=0;entryY=0.5;entryDx=0;entryDy=0;strokeColor=default;align=center;verticalAlign=middle;fontFamily=Helvetica;fontSize=11;fontColor=default;labelBackgroundColor=default;startArrow=none;startFill=0;endArrow=none;endFill=0;" edge="1" parent="1" source="RpOgEfXj6c8OLHwiYwvP-6" target="RpOgEfXj6c8OLHwiYwvP-9">
          <mxGeometry relative="1" as="geometry" />
        </mxCell>
        <mxCell id="RpOgEfXj6c8OLHwiYwvP-20" style="edgeStyle=orthogonalEdgeStyle;shape=connector;rounded=0;orthogonalLoop=1;jettySize=auto;html=1;exitX=0.5;exitY=1;exitDx=0;exitDy=0;entryX=0;entryY=0.5;entryDx=0;entryDy=0;strokeColor=default;align=center;verticalAlign=middle;fontFamily=Helvetica;fontSize=11;fontColor=default;labelBackgroundColor=default;startArrow=none;startFill=0;endArrow=none;endFill=0;" edge="1" parent="1" source="RpOgEfXj6c8OLHwiYwvP-6" target="RpOgEfXj6c8OLHwiYwvP-10">
          <mxGeometry relative="1" as="geometry" />
        </mxCell>
        <mxCell id="RpOgEfXj6c8OLHwiYwvP-21" style="edgeStyle=orthogonalEdgeStyle;shape=connector;rounded=0;orthogonalLoop=1;jettySize=auto;html=1;exitX=0.5;exitY=1;exitDx=0;exitDy=0;entryX=0;entryY=0.5;entryDx=0;entryDy=0;strokeColor=default;align=center;verticalAlign=middle;fontFamily=Helvetica;fontSize=11;fontColor=default;labelBackgroundColor=default;startArrow=none;startFill=0;endArrow=none;endFill=0;" edge="1" parent="1" source="RpOgEfXj6c8OLHwiYwvP-6" target="RpOgEfXj6c8OLHwiYwvP-11">
          <mxGeometry relative="1" as="geometry" />
        </mxCell>
        <mxCell id="RpOgEfXj6c8OLHwiYwvP-6" value="&quot;kjut&quot; zvočna opozorila&lt;div&gt;1.2&lt;/div&gt;" style="rounded=0;whiteSpace=wrap;html=1;" vertex="1" parent="1">
          <mxGeometry x="130" y="430" width="120" height="60" as="geometry" />
        </mxCell>
        <mxCell id="RpOgEfXj6c8OLHwiYwvP-7" value="stop znaki&lt;div&gt;1.2.1&lt;/div&gt;" style="rounded=0;whiteSpace=wrap;html=1;" vertex="1" parent="1">
          <mxGeometry x="220" y="510" width="120" height="60" as="geometry" />
        </mxCell>
        <mxCell id="RpOgEfXj6c8OLHwiYwvP-8" value="semaforji&lt;div&gt;1.2.2&lt;/div&gt;" style="rounded=0;whiteSpace=wrap;html=1;" vertex="1" parent="1">
          <mxGeometry x="220" y="585" width="120" height="60" as="geometry" />
        </mxCell>
        <mxCell id="RpOgEfXj6c8OLHwiYwvP-9" value="razdalja do cilja&lt;div&gt;1.2.3&lt;/div&gt;" style="rounded=0;whiteSpace=wrap;html=1;" vertex="1" parent="1">
          <mxGeometry x="220" y="660" width="120" height="60" as="geometry" />
        </mxCell>
        <mxCell id="RpOgEfXj6c8OLHwiYwvP-10" value="omejitve hitrosti&lt;div&gt;1.2.4&lt;/div&gt;" style="rounded=0;whiteSpace=wrap;html=1;" vertex="1" parent="1">
          <mxGeometry x="220" y="740" width="120" height="60" as="geometry" />
        </mxCell>
        <mxCell id="RpOgEfXj6c8OLHwiYwvP-11" value="radar&lt;div&gt;1.2.5&lt;/div&gt;" style="rounded=0;whiteSpace=wrap;html=1;" vertex="1" parent="1">
          <mxGeometry x="220" y="820" width="120" height="60" as="geometry" />
        </mxCell>
        <mxCell id="RpOgEfXj6c8OLHwiYwvP-22" value="Additional mode&lt;div&gt;2&lt;/div&gt;" style="rounded=0;whiteSpace=wrap;html=1;fontFamily=Helvetica;fontSize=11;fontColor=default;labelBackgroundColor=default;" vertex="1" parent="1">
          <mxGeometry x="414" y="120" width="120" height="60" as="geometry" />
        </mxCell>
      </root>
    </mxGraphModel>
  </diagram>
</mxfile>
